<?xml version="1.0" encoding="UTF-8"?>
<svg xmlns="http://www.w3.org/2000/svg" width="100%" height="100%" viewBox="550 300 1150 1400">
  <rect x="550" y="300" width="1150" height="1400" fill="none"/>
  
  <path fill-rule="nonzero" fill="rgb(26.660156%, 66.601562%, 0%)" fill-opacity="1" d="M 1563.640625 345.46875 C 1475.769531 345.261719 1329.28125 362.878906 1220.621094 467.128906 C 1114.640625 568.808594 1088.359375 699.589844 1163.398438 812.621094 C 1228.460938 681.308594 1315.488281 608.929688 1315.488281 608.929688 C 1215.101562 707 1156.878906 896.941406 1123.140625 1088.121094 C 1092.261719 1031.820312 1026.269531 937.449219 908.746094 880.039062 C 908.765625 880.039062 988.976562 896.339844 1058.578125 967.699219 C 1092.050781 861.828125 1030.179688 688.289062 772.199219 688.519531 C 725.023438 688.558594 671.292969 694.421875 610.390625 707.558594 C 610.390625 707.558594 665.613281 729.53125 723.257812 846.921875 C 781.980469 966.511719 894.265625 1095.578125 1033.070312 998.128906 C 1063.660156 1041.101562 1091.371094 1093.878906 1112.039062 1156.699219 C 1074.148438 1412.835938 1076.808594 1651.5625 1076.808594 1651.5625 L 1136.761719 1651.5625 C 1133.128906 1567.9375 1132.429688 1490.140625 1134.050781 1417.898438 C 1159.320312 1364.355469 1190.128906 1321.28125 1222.261719 1287.828125 C 1322.519531 1382.894531 1428.378906 1292.253906 1489.949219 1202.878906 C 1550.390625 1115.140625 1597.511719 1104.011719 1597.511719 1104.011719 C 1549.988281 1086.160156 1507.390625 1075.050781 1469.371094 1069.390625 C 1261.488281 1038.480469 1190.96875 1170.96875 1205.328125 1260.269531 C 1269.929688 1211.050781 1336.53125 1207.46875 1336.53125 1207.46875 C 1231.96875 1240.691406 1166.71875 1312.039062 1136.191406 1353.296875 C 1146.050781 1126.371094 1179.21875 958.808594 1214.398438 840.75 C 1403.78125 901.238281 1502.851562 695.21875 1526 556.75 C 1544.46875 446.269531 1639.609375 350.589844 1639.609375 350.589844 C 1639.609375 350.589844 1609.660156 345.589844 1563.640625 345.46875 "/>
</svg>
